<?xml version="1.0" standalone="no"?>
<!DOCTYPE svg PUBLIC "-//W3C//DTD SVG 20010904//EN"
 "http://www.w3.org/TR/2001/REC-SVG-20010904/DTD/svg10.dtd">
<svg version="1.0" xmlns="http://www.w3.org/2000/svg"
 width="840.000000pt" height="840.000000pt" viewBox="0 0 840.000000 840.000000"
 preserveAspectRatio="xMidYMid meet">

<g transform="translate(0.000000,840.000000) scale(0.100000,-0.100000)"
fill="#000000" stroke="none">
<path d="M2540 5570 c-72 -21 -92 -24 -71 -11 12 8 9 11 -11 16 -51 13 -71 3
-84 -40 -6 -22 -13 -58 -16 -80 l-5 -40 82 27 c53 18 117 30 173 34 l90 7 -13
30 c-15 36 -52 77 -69 76 -6 0 -40 -9 -76 -19z"/>
<path d="M2531 5435 c-137 -30 -265 -86 -302 -133 -21 -28 -24 -63 -8 -94 12
-22 82 -57 117 -58 17 0 27 -10 41 -42 10 -24 35 -61 54 -83 36 -40 43 -59 31
-89 -11 -29 -28 -17 -86 58 -79 102 -149 132 -164 69 -17 -68 23 -320 77 -483
91 -276 204 -383 452 -426 109 -19 327 -15 372 7 37 19 84 103 69 126 -30 48
-74 42 -139 -22 l-45 -45 -78 0 c-101 0 -178 21 -260 70 -37 22 -81 44 -98 50
-26 9 -38 26 -72 98 -23 48 -51 112 -62 142 -24 60 -64 220 -57 226 2 3 12
-17 22 -43 40 -106 147 -353 153 -353 20 2 182 247 182 276 0 46 -26 80 -79
103 -62 26 -81 53 -81 111 l1 45 14 -38 c7 -21 15 -40 17 -41 1 -1 27 -17 55
-35 29 -18 64 -46 77 -62 14 -16 28 -29 32 -29 16 0 -5 100 -35 168 -37 84
-39 128 -4 72 12 -19 32 -46 43 -60 23 -28 50 -118 50 -166 0 -17 -11 -48 -25
-68 -32 -47 -31 -50 3 -32 42 21 90 75 103 113 20 62 0 121 -109 326 -23 43
-42 86 -42 97 0 14 16 23 67 40 210 68 228 139 43 169 -36 6 -94 11 -130 12
l-65 1 65 12 65 12 -49 7 c-71 10 -142 7 -215 -8z"/>
<path d="M5310 5120 l-12 -50 -101 0 c-112 0 -145 -11 -165 -52 -13 -28 -7
-78 9 -78 5 0 14 11 18 24 12 31 30 37 128 43 l83 6 -55 -133 c-67 -162 -94
-211 -146 -273 -37 -43 -69 -61 -69 -38 0 6 27 65 60 132 36 72 60 135 60 154
0 40 -29 68 -65 63 -23 -2 -28 -9 -30 -33 -7 -79 -155 -325 -196 -325 -26 0
-21 16 43 140 56 108 71 176 43 203 -22 22 -64 22 -71 0 -21 -70 -58 -153 -72
-166 -9 -9 -29 -18 -44 -22 -25 -6 -27 -5 -30 32 -3 33 -7 38 -30 41 -39 5
-58 -36 -34 -73 19 -28 15 -39 -37 -112 -54 -76 -99 -49 -83 48 14 87 104 239
141 239 9 0 13 -10 12 -27 -2 -32 19 -38 36 -12 8 13 6 24 -6 43 -14 21 -25
26 -59 26 -94 0 -183 -93 -213 -225 l-11 -50 -77 -26 c-63 -21 -79 -23 -88
-13 -8 10 3 26 48 68 131 121 149 265 44 366 -64 63 -132 84 -254 78 -77 -3
-103 -9 -160 -35 -136 -64 -237 -197 -237 -312 0 -77 27 -121 74 -121 45 0 63
22 42 52 -37 53 -11 190 53 273 52 69 127 109 205 109 71 -1 110 -18 154 -68
74 -84 62 -215 -26 -299 -25 -24 -33 -27 -50 -18 -38 20 -100 13 -127 -14 -51
-50 -22 -102 60 -107 75 -5 73 -29 -7 -69 -129 -65 -242 -149 -282 -211 -10
-15 -18 -44 -18 -65 0 -76 85 -108 212 -79 230 52 362 211 306 369 -11 28 -11
39 -3 43 7 2 38 13 70 23 l57 20 14 -34 c18 -42 66 -69 108 -60 37 8 96 66
129 126 20 37 30 45 62 50 l38 6 -8 -41 c-12 -67 -6 -109 18 -129 34 -27 79
-6 132 61 l27 35 0 -27 c0 -34 15 -63 40 -76 26 -14 65 6 113 59 l37 41 0 -29
c0 -97 76 -101 153 -10 l37 44 0 -37 c0 -101 92 -94 166 13 l29 42 8 -39 c9
-47 29 -70 73 -84 27 -9 40 -8 65 4 28 14 30 14 25 0 -3 -9 -9 -26 -12 -39 -5
-20 -13 -23 -66 -27 -71 -5 -98 -29 -98 -84 0 -37 15 -46 25 -14 4 11 21 24
43 30 53 14 64 13 58 -7 -17 -59 -17 -74 -1 -99 25 -38 57 -29 67 19 13 62 35
97 63 97 44 0 125 21 147 39 14 12 19 24 14 36 -6 17 -8 17 -25 -2 -19 -20
-112 -40 -131 -28 -17 10 22 73 52 86 16 7 49 31 74 55 l44 43 0 -39 c0 -39
26 -80 50 -80 24 0 70 32 104 72 l36 43 0 -37 c0 -48 31 -82 63 -72 35 11 72
40 98 78 28 42 39 45 39 12 0 -34 35 -74 75 -85 52 -14 97 3 160 60 65 60 140
178 123 194 -7 7 -12 6 -15 -2 -11 -31 -84 -132 -120 -166 -21 -20 -54 -41
-71 -47 -28 -8 -34 -6 -48 15 -11 17 -14 36 -9 63 5 33 12 40 42 51 69 25 152
124 153 183 0 46 -71 63 -136 32 -46 -22 -87 -71 -128 -152 -64 -126 -156
-231 -156 -178 0 8 25 65 55 127 75 153 75 226 -1 217 -23 -2 -29 -10 -39 -48
-27 -105 -153 -310 -190 -310 -25 0 -18 25 39 134 63 123 74 167 51 202 -13
20 -23 24 -47 22 -26 -2 -32 -8 -35 -32 -8 -59 -80 -190 -141 -256 -33 -36
-63 -62 -66 -59 -3 3 14 50 39 105 58 131 72 185 57 218 -9 20 -19 26 -45 26
-32 0 -34 -2 -47 -52 -18 -73 -112 -257 -149 -292 -26 -25 -32 -27 -47 -15
-42 34 10 215 86 297 33 36 55 42 47 12 -5 -21 16 -45 33 -35 5 3 10 19 10 35
0 35 -23 50 -75 50 -72 0 -131 -52 -189 -168 -64 -126 -156 -231 -156 -178 0
8 25 66 56 129 57 118 69 172 44 202 -8 10 -25 15 -44 13 -26 -3 -31 -8 -38
-42 -20 -95 -156 -316 -194 -316 -27 0 -10 46 120 325 62 133 79 147 121 101
33 -36 62 -34 81 7 10 22 31 40 57 53 44 20 52 31 38 53 -7 11 -13 9 -30 -8
-24 -24 -41 -26 -89 -9 -29 11 -35 10 -43 -5 -6 -9 -21 -17 -35 -17 -23 0 -24
3 -19 34 10 49 -8 76 -49 76 -32 0 -35 -2 -46 -50z m1266 -244 c13 -34 -83
-156 -123 -156 -19 0 -16 11 22 76 49 82 88 113 101 80z m-2422 -382 c24 -62
-10 -150 -83 -216 -79 -71 -222 -113 -259 -76 -51 51 49 159 248 267 86 46 86
47 94 25z"/>
<path d="M3987 4983 c-4 -3 -7 -15 -7 -26 0 -10 -26 -76 -59 -145 -80 -174
-96 -225 -81 -262 6 -15 20 -30 29 -33 25 -6 51 10 51 33 0 10 34 86 75 168
102 204 110 272 30 272 -17 0 -35 -3 -38 -7z"/>
<path d="M2250 4525 c0 -47 -56 -313 -106 -505 -43 -166 -139 -516 -152 -549
-4 -13 -2 -13 14 1 23 20 99 162 135 251 35 87 34 54 -1 -57 -40 -126 -79
-211 -130 -286 -41 -60 -51 -69 -169 -157 -66 -48 -121 -121 -121 -158 0 -19
6 -21 68 -21 37 -1 118 -11 181 -24 86 -17 115 -20 121 -10 4 6 10 42 13 78 6
68 49 271 67 313 8 21 9 19 5 -11 -3 -19 -10 -66 -15 -105 -16 -110 -23 -358
-11 -375 17 -25 225 -19 330 9 194 52 254 108 437 409 54 90 120 187 145 215
56 63 130 106 196 114 81 9 207 -33 321 -108 39 -26 43 -9 9 42 -52 78 -157
120 -353 143 -135 16 -205 42 -315 117 -83 56 -221 181 -284 257 -30 36 -63
65 -82 72 -101 35 -216 163 -272 301 -24 59 -31 68 -31 44z"/>
<path d="M3800 4037 c-108 -57 -121 -220 -23 -284 53 -35 223 -11 223 31 0 9
-4 16 -10 16 -5 0 -10 -4 -10 -10 0 -16 -57 -40 -97 -40 -76 0 -133 62 -133
145 0 53 24 102 62 125 42 25 139 28 159 4 12 -14 14 -14 20 3 11 29 2 33 -75
33 -57 0 -82 -5 -116 -23z"/>
<path d="M4119 4039 c-54 -31 -74 -72 -74 -149 0 -106 44 -153 143 -154 107
-1 168 60 166 169 -1 72 -23 118 -70 140 -46 22 -122 19 -165 -6z m156 -29
c47 -44 57 -159 19 -218 -45 -69 -161 -56 -198 22 -31 66 -14 188 31 215 31
19 120 8 148 -19z"/>
<path d="M4413 4049 c15 -9 17 -27 17 -154 0 -141 0 -144 -22 -148 -13 -2 32
-5 98 -6 104 -1 123 1 128 15 5 12 2 15 -11 9 -10 -4 -44 -9 -76 -12 -44 -5
-61 -2 -68 8 -10 16 -12 231 -3 266 4 14 16 23 33 26 14 2 -5 5 -44 5 -52 1
-65 -1 -52 -9z"/>
<path d="M4678 4050 c21 -9 22 -13 22 -154 0 -142 0 -145 -22 -149 -13 -3 31
-4 96 -3 82 1 121 5 123 13 3 9 -5 9 -32 2 -19 -6 -55 -9 -78 -7 l-42 3 0 145
0 144 25 7 c16 4 -1 7 -45 7 -51 1 -64 -2 -47 -8z"/>
<path d="M4944 4047 c16 -12 19 -33 24 -154 l5 -141 -24 -5 c-13 -2 28 -5 92
-6 94 -1 118 2 122 14 5 11 0 13 -26 7 -18 -4 -54 -7 -82 -7 l-50 0 -3 73 -3
72 61 0 c53 0 60 -2 60 -20 0 -42 15 -17 16 27 1 38 -1 43 -11 30 -9 -12 -28
-17 -69 -17 l-56 0 0 61 0 61 77 -3 c55 -3 77 0 80 9 4 9 -23 12 -113 12 -101
0 -115 -2 -100 -13z"/>
<path d="M5293 4039 c-72 -35 -107 -121 -84 -206 23 -84 109 -120 216 -89 52
16 77 38 60 54 -4 4 -10 1 -12 -6 -15 -40 -119 -55 -166 -23 -48 31 -62 60
-62 126 1 68 20 107 66 131 34 17 122 19 149 2 22 -14 35 -6 27 17 -10 24
-140 21 -194 -6z"/>
<path d="M5527 4041 c-4 -17 -2 -18 20 -10 13 5 39 9 58 9 45 0 49 -15 40
-166 -6 -115 -8 -123 -28 -127 -12 -2 10 -4 48 -5 43 0 60 3 45 7 -25 7 -25 7
-28 149 l-3 142 41 0 c23 0 50 -5 61 -10 16 -9 19 -7 19 10 0 19 -6 20 -134
20 -124 0 -134 -1 -139 -19z"/>
<path d="M5834 4053 c4 -5 13 -8 19 -8 9 0 13 -43 15 -147 2 -133 1 -147 -15
-151 -10 -3 9 -5 42 -4 33 0 50 2 37 4 -22 4 -23 5 -20 151 3 133 5 147 21
146 9 -1 17 2 17 7 0 5 -28 9 -62 9 -34 0 -58 -3 -54 -7z"/>
<path d="M6067 4039 c-96 -51 -104 -239 -13 -286 17 -9 56 -17 86 -17 103 -1
160 58 160 167 0 69 -19 111 -63 137 -42 26 -120 26 -170 -1z m133 -14 c42
-22 63 -69 63 -137 -1 -106 -65 -163 -150 -135 -56 18 -83 65 -83 144 0 64 8
92 38 126 19 22 92 23 132 2z"/>
<path d="M6356 4050 c12 -5 25 -14 29 -20 4 -6 3 -71 -1 -145 -5 -111 -9 -135
-23 -138 -9 -3 7 -5 34 -4 28 0 40 2 28 4 -22 4 -23 8 -23 129 0 68 4 124 8
124 4 0 55 -61 112 -136 l105 -137 2 139 c3 160 7 181 31 187 9 3 -8 5 -38 5
-42 1 -50 -1 -33 -8 30 -12 34 -36 31 -153 l-3 -98 -99 131 -99 130 -41 -1
c-33 0 -37 -2 -20 -9z"/>
<path d="M3330 3528 c-47 -13 -130 -70 -177 -121 -21 -23 -77 -98 -123 -167
-47 -69 -112 -152 -145 -186 -109 -111 -254 -190 -415 -225 l-85 -19 65 6
c125 12 274 70 375 147 77 58 117 103 203 222 121 170 168 223 236 267 49 32
68 38 112 38 100 0 154 -37 154 -106 0 -24 5 -46 11 -49 20 -13 49 26 49 65 0
31 -7 44 -39 73 -39 35 -122 68 -165 66 -12 0 -37 -5 -56 -11z"/>
</g>
</svg>
